<svg width="342" height="156" viewBox="0 0 342 156" fill="none" xmlns="http://www.w3.org/2000/svg">
<path d="M49.0944 10.7359C48.5342 11.5356 47.934 12.2953 47.2938 13.015C46.6937 13.6947 45.9334 14.2345 45.0132 14.6344C44.533 17.3933 44.1329 20.1722 43.8128 22.9712C43.5327 25.7701 43.2126 28.569 42.8525 31.3679C42.5324 34.1669 42.1523 36.9658 41.7122 39.7647C41.3121 42.5236 40.7519 45.2626 40.0317 47.9815L40.0917 48.7013C40.1717 49.501 40.0717 50.2607 39.7916 50.9804C39.5116 51.7001 39.3915 52.4798 39.4315 53.3195C38.8714 54.719 38.3912 56.2784 37.9911 57.9977C37.591 59.677 37.3509 61.2764 37.2709 62.7958C36.8708 63.4756 36.5307 64.2153 36.2506 65.015C36.0105 65.8147 35.7505 66.6344 35.4704 67.474C35.2303 68.2737 34.9502 69.0534 34.6301 69.8131C34.31 70.5329 33.8899 71.1926 33.3698 71.7924C33.2497 72.712 33.0097 73.5717 32.6495 74.3714C32.3295 75.2111 31.9493 76.0308 31.5092 76.8305C31.1091 77.6301 30.709 78.4098 30.3089 79.1695C29.9488 79.9692 29.6887 80.8089 29.5286 81.6886C28.8484 82.7282 28.1682 83.7278 27.488 84.6874C26.8078 85.687 26.1877 86.7266 25.6275 87.8062C25.1073 88.0461 24.6472 88.306 24.2471 88.5859C23.887 88.9058 23.5269 89.1857 23.1668 89.4256C22.8067 89.7055 22.3865 89.9454 21.9064 90.1453C21.4663 90.3452 20.9261 90.4452 20.2859 90.4452C20.1259 90.4452 19.9658 90.4252 19.8058 90.3852C19.6858 90.3852 19.5457 90.3852 19.3857 90.3852C18.8255 89.9454 18.2653 89.5056 17.7052 89.0657C17.145 88.6659 16.5448 88.306 15.9047 87.9862C15.9047 87.7463 15.8646 87.5463 15.7846 87.3864C15.7446 87.2265 15.7046 87.0665 15.6646 86.9066C15.6246 86.7466 15.6046 86.5867 15.6046 86.4268C15.6046 86.2668 15.6446 86.0669 15.7246 85.827C15.3645 85.5871 14.9444 85.1473 14.4642 84.5075C14.0241 83.9077 13.804 83.3879 13.804 82.9481C13.804 82.5482 13.9441 82.3483 14.2242 82.3483C14.1441 81.9485 14.0041 81.5486 13.804 81.1488C13.644 80.7889 13.564 80.4091 13.564 80.0092C13.564 79.7293 13.644 79.4295 13.804 79.1096C13.3639 78.07 12.9638 76.9904 12.6037 75.8708C12.2436 74.7912 12.0035 73.6717 11.8835 72.5121C11.4834 71.9923 11.1633 71.3925 10.9232 70.7128C10.7231 69.9931 10.5631 69.2534 10.4431 68.4937C10.323 67.7339 10.223 66.9942 10.143 66.2745C10.0629 65.5148 9.96291 64.8151 9.84288 64.1753C9.80287 63.9354 9.70284 63.5556 9.54279 63.0358C9.38274 62.476 9.30272 62.0961 9.30272 61.8962C9.30272 61.6563 9.34273 61.4764 9.42276 61.3564C9.54279 61.2364 9.64282 61.0765 9.72284 60.8766C9.2427 58.9573 8.84259 57.0181 8.52249 55.0588C8.24241 53.0996 7.96233 51.1403 7.68225 49.1811C7.44218 47.2218 7.14209 45.2826 6.78198 43.3633C6.46189 41.4041 6.00175 39.4848 5.40158 37.6055V37.0657C5.40158 35.7862 4.90143 34.7666 3.90114 34.0069C4.1012 33.4072 4.20123 32.9073 4.20123 32.5075C4.20123 31.9877 4.1212 31.4879 3.96116 31.0081C3.84112 30.5283 3.70108 30.0484 3.54104 29.5686C3.38099 29.0888 3.26095 28.609 3.18093 28.1292C3.14092 27.6494 3.18093 27.1695 3.30097 26.6897C2.86084 26.2099 2.50073 25.6901 2.22065 25.1303C1.94057 24.5706 1.58046 24.0907 1.14033 23.6909L1.08032 23.331C1.08032 23.1311 1.14033 22.9512 1.26037 22.7912C1.34039 22.6313 1.3804 22.4514 1.3804 22.2514C1.3804 21.9715 1.32039 21.7316 1.20035 21.5317C1.0403 21.3318 0.880257 21.1519 0.720211 20.9919C0.520152 20.832 0.360105 20.672 0.24007 20.5121C0.0800234 20.3522 0 20.1722 0 19.9723C0 19.4925 0.160047 19.1126 0.48014 18.8328C0.800234 18.5529 1.16034 18.313 1.56046 18.113C1.96057 17.8731 2.34068 17.6332 2.70079 17.3933C3.10091 17.1534 3.36098 16.8135 3.48102 16.3737C3.80111 16.4537 4.12121 16.5136 4.4413 16.5536C4.76139 16.5536 5.08149 16.6336 5.40158 16.7935C5.44159 16.7536 5.4616 16.6936 5.4616 16.6136C5.4616 16.4937 5.26154 16.3937 4.86142 16.3137C4.50132 16.1938 4.26125 16.0538 4.14121 15.8939C4.4613 15.8139 4.70138 15.7739 4.86142 15.7739C5.66166 15.7739 6.42188 15.9739 7.14209 16.3737C7.90231 16.7736 8.62252 17.1934 9.30272 17.6332C9.38274 17.9931 9.40275 18.3729 9.36274 18.7728C9.32273 19.1326 9.44276 19.4725 9.72284 19.7924C9.68283 19.9923 9.66283 20.1722 9.66283 20.3322C9.70284 20.4921 9.72284 20.6521 9.72284 20.812C9.72284 21.0119 9.68283 21.1918 9.60281 21.3518C9.5628 21.4717 9.46277 21.5317 9.30272 21.5317C9.5828 22.0115 9.76285 22.5913 9.84288 23.271C9.96291 23.9508 10.0629 24.6505 10.143 25.3702C10.263 26.09 10.403 26.7897 10.5631 27.4694C10.7231 28.1492 11.0232 28.7489 11.4634 29.2687C11.3833 29.5087 11.3233 29.7486 11.2833 29.9885C11.2833 30.2284 11.2833 30.4883 11.2833 30.7682C11.2833 32.0477 11.4433 33.3072 11.7634 34.5467C12.0835 35.7862 12.2436 37.0458 12.2436 38.3253C12.2436 39.085 12.1235 39.7847 11.8835 40.4245C11.8835 40.7843 12.0035 41.0842 12.2436 41.3241C12.4837 41.524 12.6437 41.8039 12.7237 42.1638C12.5237 42.6436 12.4236 43.1034 12.4236 43.5433C12.4236 44.4629 12.6037 45.3426 12.9638 46.1822C13.3239 46.9819 13.5039 47.8216 13.5039 48.7013C13.5039 48.9812 13.4639 49.2411 13.3839 49.481C13.3039 49.7209 13.2239 49.9408 13.1438 50.1407C13.5039 50.5006 13.684 50.9604 13.684 51.5202C13.724 52.08 13.9041 52.5398 14.2242 52.8997C14.1841 53.0996 14.1441 53.2995 14.1041 53.4994C14.1041 53.6993 14.0041 53.8593 13.804 53.9792C14.0041 54.2591 14.1041 54.639 14.1041 55.1188C14.1441 55.5586 14.3242 55.8185 14.6443 55.8985C14.5643 56.0984 14.5042 56.2784 14.4642 56.4383C14.4242 56.5982 14.4042 56.7782 14.4042 56.9781C14.4042 57.4179 14.4642 57.8178 14.5843 58.1776L14.9444 59.2572C15.0644 59.6171 15.1444 59.9969 15.1844 60.3968C15.2645 60.7966 15.2245 61.2364 15.0644 61.7163C15.2245 61.9562 15.3445 62.2361 15.4245 62.5559C15.5445 62.8758 15.6446 63.2157 15.7246 63.5755C15.8046 63.8954 15.9247 64.1953 16.0847 64.4752C16.2448 64.7151 16.4848 64.875 16.8049 64.955C16.8449 65.1949 16.7449 65.3149 16.5048 65.3149C16.3048 65.3149 16.2047 65.4148 16.2047 65.6148C16.2047 65.9346 16.3248 66.3345 16.5648 66.8143C16.8049 67.2541 17.025 67.574 17.225 67.7739C17.185 67.9339 17.165 68.0938 17.165 68.2537V68.7935C17.165 69.3533 17.245 69.9331 17.4051 70.5329C17.5651 71.0927 17.7052 71.6524 17.8252 72.2122C17.9853 72.812 18.1053 73.3918 18.1853 73.9516C18.2653 74.5113 18.2253 75.0311 18.0653 75.511C18.3854 76.0707 18.6655 76.6705 18.9055 77.3103C19.1456 77.95 19.5257 78.4898 20.0459 78.9296C20.0459 79.6094 20.1859 80.2491 20.466 80.8489C20.7461 81.4887 21.1062 82.0884 21.5463 82.6482C21.9464 82.6482 22.2465 82.5083 22.4466 82.2284C22.6466 81.9885 22.8067 81.7086 22.9267 81.3887C23.0467 81.0688 23.1868 80.7689 23.3468 80.489C23.5069 80.2092 23.767 80.0492 24.1271 80.0092C24.1671 79.6094 24.2671 79.2695 24.4271 78.9896C24.6272 78.7497 24.8073 78.4898 24.9673 78.2099C25.1674 77.93 25.3274 77.6301 25.4474 77.3103C25.6075 76.9904 25.6675 76.5905 25.6275 76.1107L26.2877 75.9308C26.4877 74.8512 26.7878 73.8716 27.188 72.9919C27.6281 72.1523 28.1082 71.2726 28.6284 70.3529V70.0531C28.6284 69.6532 28.6884 69.3133 28.8084 69.0334C28.9285 68.7536 28.9485 68.3937 28.8684 67.9539C29.1485 67.8739 29.3486 67.714 29.4686 67.474C29.5887 67.2341 29.6887 66.9942 29.7687 66.7543C29.8487 66.4744 29.9288 66.2145 30.0088 65.9746C30.1288 65.6947 30.3089 65.4948 30.5489 65.3749V64.895C30.5089 64.5352 30.5289 64.1953 30.609 63.8754C30.729 63.5156 30.709 63.1557 30.5489 62.7958C30.869 62.6759 31.1091 62.476 31.2691 62.1961C31.4292 61.9162 31.5492 61.6163 31.6292 61.2964C31.7493 60.9765 31.8093 60.6367 31.8093 60.2768C31.8493 59.917 31.8693 59.5971 31.8693 59.3172C32.1494 58.9573 32.3495 58.5375 32.4695 58.0577C32.5895 57.5379 32.6896 57.0181 32.7696 56.4983C32.8496 55.9785 32.9496 55.4787 33.0697 54.9988C33.2297 54.519 33.4698 54.0992 33.7899 53.7393C33.7099 53.5394 33.6698 53.3595 33.6698 53.1995V52.6597C33.6698 51.9 33.7899 51.2203 34.0299 50.6205C34.27 49.9808 34.4901 49.301 34.6901 48.5813C35.2103 46.782 35.5704 44.9427 35.7705 43.0634C36.0105 41.1442 36.3506 39.2649 36.7908 37.4256C36.8308 37.2257 36.9108 36.9058 37.0308 36.466C37.1509 36.0261 37.2709 35.5863 37.3909 35.1465C37.511 34.6667 37.611 34.2468 37.691 33.887C37.8111 33.4871 37.8711 33.2272 37.8711 33.1073C37.8711 32.7874 37.791 32.5675 37.631 32.4475C37.511 32.3276 37.451 32.1276 37.451 31.8478C37.691 31.4879 37.8511 31.0281 37.9311 30.4683C38.0111 29.9085 38.0711 29.3287 38.1111 28.729C38.1512 28.0892 38.1512 27.4894 38.1111 26.9296C38.1111 26.3299 38.1111 25.8101 38.1111 25.3702C38.1111 24.9304 38.2112 24.3706 38.4112 23.6909C38.6113 23.0111 38.7513 22.4114 38.8314 21.8916C39.0314 20.5321 39.1514 19.1926 39.1915 17.8731C39.2715 16.5136 39.3515 15.1542 39.4315 13.7947C39.7116 13.6348 39.9117 13.4348 40.0317 13.1949C40.1517 12.915 40.2118 12.6351 40.2118 12.3552C40.2118 11.9154 40.1517 11.4956 40.0317 11.0957C39.9517 10.6959 39.9117 10.276 39.9117 9.83622C39.9117 9.63629 39.9317 9.43637 39.9717 9.23645C40.0117 8.99654 40.1117 8.79662 40.2718 8.63668C40.2318 8.35679 40.1918 8.07689 40.1517 7.797C40.1517 7.51711 40.0517 7.2772 39.8517 7.07728C40.0517 6.55748 40.1517 6.03768 40.1517 5.51788C40.1517 5.03806 40.0917 4.55825 39.9717 4.07843C39.8917 3.59862 39.8517 3.09881 39.8517 2.57901C39.8517 1.57939 40.2718 0.859669 41.112 0.419839H41.9523C42.3524 0.419839 42.7525 0.399846 43.1526 0.359862C43.5527 0.319877 43.9729 0.199923 44.413 0C44.9331 0.559785 45.4733 1.17955 46.0335 1.85928C46.5936 2.49904 47.0738 3.19877 47.4739 3.95848C47.874 4.71819 48.1741 5.49789 48.3741 6.29758C48.5742 7.09727 48.5942 7.93695 48.4342 8.81661C48.5942 9.13649 48.6942 9.45636 48.7342 9.77624C48.7743 10.0961 48.8943 10.416 49.0944 10.7359ZM36.8508 43.4233C36.6907 43.3833 36.5707 43.3233 36.4907 43.2434C36.4507 43.1234 36.3306 43.0434 36.1306 43.0035V43.6632H36.6107L36.8508 43.4233Z" fill="#FFF5F5"/>
<path d="M62.2382 62.7359C62.0381 63.0557 61.7981 63.3556 61.518 63.6355C61.2379 63.8754 60.9778 64.1353 60.7378 64.4152C60.4577 64.5352 60.1376 64.5952 59.7775 64.5952C59.4574 64.5952 59.1373 64.5952 58.8172 64.5952C58.5371 64.5552 58.257 64.5552 57.977 64.5952C57.7369 64.5952 57.5368 64.6751 57.3768 64.8351C57.0567 64.7551 56.8166 64.6151 56.6566 64.4152C56.4965 64.1753 56.2164 64.0354 55.8163 63.9954C55.6563 63.9554 55.4962 63.9554 55.3362 63.9954C54.736 63.3156 54.1758 62.5959 53.6557 61.8362C53.1755 61.0765 52.7154 60.3568 52.2753 59.677C52.2353 58.1976 52.1152 56.6982 51.9152 55.1788C51.8752 54.8189 51.8152 54.4591 51.7351 54.0992C51.6551 53.7393 51.5951 53.3995 51.5551 53.0796C51.5551 52.6797 51.5751 52.2999 51.6151 51.94C51.6951 51.5402 51.7551 51.1803 51.7951 50.8604C51.9552 49.7009 52.1352 48.5613 52.3353 47.4418C52.5354 46.3222 52.7154 45.1826 52.8755 44.0231C53.0355 42.9835 53.1155 41.9039 53.1155 40.7843C53.1155 39.6248 52.9355 38.5452 52.5754 37.5456L52.5154 37.2457C52.5954 36.9258 52.6754 36.6659 52.7554 36.466C52.8755 36.2261 52.9555 35.9662 52.9955 35.6863C53.0755 35.2464 52.9755 34.9266 52.6954 34.7266C52.8154 34.4068 53.0155 34.2068 53.2956 34.1269C53.5757 34.0069 53.7357 33.767 53.7757 33.4072C53.8157 33.2472 53.8157 33.0873 53.7757 32.9273C54.0958 32.8074 54.4159 32.7074 54.736 32.6274C55.0961 32.5075 55.4362 32.4875 55.7563 32.5675C56.2765 32.6474 56.7366 32.8274 57.1367 33.1073C57.5368 33.3472 57.9169 33.6271 58.277 33.9469C58.9172 35.8662 59.1773 37.9054 59.0573 40.0646C58.9372 42.1838 58.7372 44.323 58.4571 46.4821C58.177 48.6413 57.997 50.7605 57.9169 52.8397C57.8369 54.8789 58.157 56.7782 58.8772 58.5375L58.9973 58.5975C59.1973 58.6374 59.3574 58.5775 59.4774 58.4175C59.5974 58.2176 59.7575 58.1376 59.9575 58.1776C60.1176 58.2576 60.2176 58.2976 60.2576 58.2976C60.4177 59.0973 60.6777 59.857 61.0378 60.5767C61.398 61.2964 61.7981 62.0161 62.2382 62.7359Z" fill="#FFF5F5"/>
<path d="M112.953 60.1569C112.953 60.5567 112.833 60.8966 112.593 61.1765C112.393 61.4164 112.133 61.6363 111.813 61.8362C111.533 62.0361 111.233 62.2161 110.912 62.376C110.632 62.5359 110.372 62.7359 110.132 62.9758C109.972 63.1357 109.852 63.3356 109.772 63.5755C109.732 63.7755 109.632 63.9154 109.472 63.9954C109.232 64.1953 108.972 64.3153 108.692 64.3552C108.412 64.3952 108.112 64.4552 107.792 64.5352C107.511 64.5752 107.231 64.6551 106.951 64.7751C106.671 64.8551 106.431 65.035 106.231 65.3149C104.351 65.5148 102.49 65.7747 100.649 66.0946C98.8489 66.4145 96.9884 66.5744 95.0678 66.5744C94.7077 66.5744 94.3076 66.6144 93.8674 66.6944C93.4673 66.7343 93.0872 66.7743 92.7271 66.8143C91.8869 66.8943 91.0466 66.9542 90.2064 66.9942C89.4061 67.0342 88.5859 67.0542 87.7457 67.0542C86.5853 67.0542 85.425 67.0142 84.2646 66.9343C83.1043 66.8143 81.964 66.6344 80.8436 66.3945C80.5636 66.1945 80.2435 66.0346 79.8834 65.9146C79.5233 65.7947 79.1431 65.6747 78.743 65.5548C78.3829 65.4348 78.0428 65.2949 77.7227 65.1349C77.4026 64.975 77.1626 64.7351 77.0025 64.4152C76.4023 64.3752 75.8622 64.2553 75.382 64.0554C74.9419 63.8554 74.5218 63.6355 74.1217 63.3956C73.7616 63.1157 73.3815 62.8358 72.9813 62.5559C72.5812 62.276 72.1211 62.0361 71.6009 61.8362C71.2008 61.2764 70.7807 60.7366 70.3406 60.2168C69.9405 59.6571 69.4403 59.1972 68.8401 58.8374C68.7201 58.0777 68.52 57.318 68.24 56.5582C67.9999 55.7985 67.7398 55.0588 67.4597 54.3391C67.2197 53.5794 67.0196 52.8197 66.8596 52.06C66.6595 51.3003 66.5595 50.5206 66.5595 49.7209C66.5595 49.1611 66.6395 48.4814 66.7995 47.6817C66.9596 46.882 67.1596 46.0823 67.3997 45.2826C67.6798 44.4429 67.9999 43.6632 68.36 42.9435C68.7201 42.2238 69.0802 41.644 69.4403 41.2042C69.5603 41.0842 69.7004 40.9842 69.8604 40.9043C70.0205 40.8243 70.1605 40.7043 70.2805 40.5444C70.6407 40.1446 71.0208 39.8247 71.4209 39.5848C71.821 39.3049 72.2411 38.985 72.6813 38.6251C72.8413 38.4652 72.9613 38.2853 73.0414 38.0854C73.1614 37.8854 73.3214 37.7055 73.5215 37.5456C73.6415 37.4656 73.8016 37.4456 74.0016 37.4856C74.2417 37.5256 74.4418 37.4856 74.6018 37.3656C74.7619 37.2457 74.8419 37.1057 74.8419 36.9458C74.8419 36.7859 74.9019 36.6459 75.0219 36.526C75.0619 36.486 75.182 36.486 75.382 36.526C75.5821 36.526 75.7021 36.526 75.7421 36.526C76.0222 36.526 76.3423 36.346 76.7024 35.9862C77.0625 35.5863 77.3626 35.3264 77.6027 35.2065C77.8828 35.0465 78.1629 34.9466 78.4429 34.9066C78.723 34.8266 79.0231 34.7066 79.3432 34.5467C79.7833 34.3068 80.2035 34.1269 80.6036 34.0069C81.0437 33.847 81.4838 33.6671 81.924 33.4671C82.164 33.3872 82.3841 33.2472 82.5842 33.0473C82.7842 32.8474 82.9843 32.7074 83.1843 32.6274C83.5444 32.5075 83.9245 32.4275 84.3247 32.3875C84.7648 32.3076 85.1649 32.2476 85.525 32.2076C85.9251 32.1276 86.3052 32.0477 86.6653 31.9677C87.0655 31.8478 87.4256 31.6478 87.7457 31.3679H88.2258C88.946 31.3679 89.6462 31.268 90.3264 31.0681C91.0066 30.8681 91.7068 30.7682 92.427 30.7682C92.6271 30.7682 92.9272 30.8082 93.3273 30.8881C93.6474 30.6882 94.0075 30.5882 94.4076 30.5882C95.0878 30.5882 95.768 30.7682 96.4482 31.128C97.1284 31.4479 97.8286 31.6078 98.5488 31.6078H98.9089C99.069 31.6078 99.229 31.5879 99.3891 31.5479C99.8292 31.9877 100.349 32.2276 100.95 32.2676C101.59 32.3076 102.13 32.4875 102.57 32.8074C102.85 33.0473 103.07 33.3272 103.23 33.6471C103.43 33.9669 103.59 34.3068 103.71 34.6667L104.07 35.7463C104.19 36.1061 104.351 36.426 104.551 36.7059C104.351 38.1453 103.75 39.3049 102.75 40.1845C101.79 41.0242 100.569 41.4441 99.089 41.4441C98.5288 41.4441 98.0487 41.3841 97.6486 41.2641C97.2884 41.1042 96.9483 40.9443 96.6283 40.7843C96.3482 40.6244 96.0481 40.4644 95.728 40.3045C95.4079 40.1446 95.0478 40.0246 94.6477 39.9446C95.0878 39.1449 95.3679 38.2853 95.4879 37.3656C95.0478 37.1657 94.6077 37.0258 94.1675 36.9458C93.7274 36.8658 93.3073 36.7259 92.9072 36.526C91.8269 36.8058 90.7665 37.0058 89.7262 37.1257C88.7259 37.2057 87.7857 37.6255 86.9054 38.3852C86.7054 38.3452 86.4853 38.3053 86.2452 38.2653C86.0452 38.2253 85.8451 38.2053 85.645 38.2053C85.405 38.2053 84.9248 38.3852 84.2046 38.7451C83.4844 39.065 82.7042 39.4448 81.8639 39.8847C81.0637 40.3245 80.2835 40.7643 79.5233 41.2042C78.803 41.644 78.3029 41.9439 78.0228 42.1038C77.7027 42.3037 77.4226 42.5436 77.1826 42.8235C76.9425 43.1034 76.7024 43.4033 76.4624 43.7232C76.2223 44.0031 75.9822 44.283 75.7421 44.5629C75.5021 44.8028 75.202 44.9827 74.8419 45.1027C74.7619 45.5425 74.6218 45.9223 74.4218 46.2422C74.2217 46.5621 74.0016 46.902 73.7616 47.2618C73.7216 47.9815 73.6415 48.7013 73.5215 49.421C73.4415 50.1407 73.4015 50.8604 73.4015 51.5802V52.3599C73.4015 52.5998 73.4415 52.8197 73.5215 53.0196C73.9216 53.5394 74.2417 54.1192 74.4818 54.7589C74.7619 55.3987 75.222 55.8385 75.8622 56.0784C75.9022 56.2384 75.8822 56.3383 75.8022 56.3783C75.7622 56.4183 75.7221 56.5183 75.6821 56.6782C75.9222 57.118 76.2223 57.4779 76.5824 57.7578C76.9825 57.9977 77.3826 58.2576 77.7827 58.5375C78.1829 58.7774 78.563 59.0373 78.9231 59.3172C79.2832 59.5971 79.5633 59.9569 79.7633 60.3968C80.3635 60.3968 80.9237 60.4967 81.4438 60.6967C82.004 60.8966 82.5241 61.1165 83.0043 61.3564C83.5244 61.5963 84.0046 61.8162 84.4447 62.0161C84.9248 62.2161 85.405 62.316 85.8851 62.316C86.3252 62.316 86.7254 62.2561 87.0855 62.1361C88.1258 62.456 89.1661 62.6959 90.2064 62.8558C91.2867 62.9758 92.367 63.0358 93.4473 63.0358C94.7677 63.0358 96.0881 62.9558 97.4085 62.7958C98.7289 62.6359 100.049 62.496 101.37 62.376C101.85 62.296 102.31 62.2561 102.75 62.2561C103.19 62.2561 103.63 62.2161 104.07 62.1361C104.631 62.0561 105.151 61.7962 105.631 61.3564C106.151 60.9166 106.651 60.5967 107.131 60.3968C107.571 60.6767 108.092 60.8166 108.692 60.8166C109.372 60.8166 110.032 60.7166 110.672 60.5167C111.313 60.2768 111.973 60.1569 112.653 60.1569H112.953Z" fill="#FFF5F5"/>
<path d="M164.148 32.3875C163.988 32.9073 163.728 33.3872 163.368 33.827L162.347 35.0865C162.027 35.4864 161.747 35.9262 161.507 36.406C161.307 36.8458 161.247 37.3656 161.327 37.9654C161.247 37.9654 161.147 37.9654 161.027 37.9654C160.907 37.9254 160.807 37.9054 160.727 37.9054C160.087 37.9054 159.587 38.0654 159.227 38.3852C158.906 38.6651 158.466 38.905 157.906 39.105C157.826 38.8651 157.726 38.6451 157.606 38.4452C157.486 38.2053 157.306 38.0454 157.066 37.9654C156.106 38.1653 155.145 38.3253 154.185 38.4452C153.225 38.5252 152.265 38.6451 151.304 38.8051C150.864 38.885 150.424 39.005 149.984 39.1649C149.544 39.2849 149.084 39.4048 148.603 39.5248C148.363 39.6048 148.103 39.6448 147.823 39.6448C147.543 39.6048 147.263 39.6048 146.983 39.6448C146.023 39.6847 144.982 39.7647 143.862 39.8847C142.742 39.9646 141.741 40.2645 140.861 40.7843C140.461 40.7043 140.041 40.6444 139.601 40.6044C139.161 40.5644 138.721 40.5444 138.28 40.5444C137.32 40.5444 136.26 40.6444 135.1 40.8443C133.979 41.0042 132.979 41.3441 132.099 41.8639C131.899 41.7839 131.678 41.724 131.438 41.684C131.238 41.644 130.998 41.624 130.718 41.624C130.638 41.624 130.578 41.644 130.538 41.684C130.498 41.684 130.438 41.684 130.358 41.684C130.318 42.0438 130.358 42.4037 130.478 42.7636C130.638 43.0834 130.898 43.3433 131.258 43.5433C131.098 43.9831 131.018 44.4629 131.018 44.9827C131.018 45.6624 131.058 46.3422 131.138 47.0219C131.258 47.7017 131.318 48.3814 131.318 49.0611C131.318 49.8208 131.218 50.4206 131.018 50.8604C131.418 52.06 131.618 53.3395 131.618 54.699C131.618 55.1788 131.578 55.6586 131.498 56.1384C131.458 56.5782 131.438 57.0581 131.438 57.5779C131.438 58.0177 131.598 58.3775 131.919 58.6574C132.239 58.8973 132.399 59.2372 132.399 59.677C132.399 59.837 132.359 59.9969 132.279 60.1569C132.839 60.0369 133.379 59.877 133.899 59.677C134.419 59.4371 134.959 59.3172 135.52 59.3172C135.84 59.3172 136.14 59.3772 136.42 59.4971C136.74 59.6171 137.02 59.777 137.26 59.9769C137.22 60.1769 137.18 60.3968 137.14 60.6367C137.14 60.8766 137.14 61.1165 137.14 61.3564C137.14 61.7962 137.14 62.2161 137.14 62.6159C137.18 62.9758 137.22 63.3756 137.26 63.8155C136.94 64.3752 136.56 64.875 136.12 65.3149C135.72 65.7547 135.44 66.3145 135.28 66.9942C134.679 66.9942 134.139 67.1342 133.659 67.4141C133.219 67.654 132.799 67.9339 132.399 68.2537C131.999 68.5336 131.598 68.8135 131.198 69.0934C130.798 69.3333 130.358 69.4533 129.878 69.4533C129.278 69.4533 128.858 69.3733 128.618 69.2134C128.378 69.0135 128.197 68.8135 128.077 68.6136C127.957 68.4137 127.837 68.2337 127.717 68.0738C127.637 67.9139 127.437 67.8539 127.117 67.8939C127.037 67.3741 126.877 66.8943 126.637 66.4544C126.397 65.9746 126.137 65.5148 125.857 65.075C125.617 64.6351 125.357 64.1953 125.077 63.7555C124.837 63.2757 124.656 62.7958 124.536 62.316C124.296 61.2764 124.196 60.1968 124.236 59.0773C124.276 57.9577 124.096 56.8781 123.696 55.8385C123.776 55.2787 123.836 54.719 123.876 54.1592C123.916 53.5594 123.936 52.9796 123.936 52.4198C123.936 51.3003 123.896 50.2007 123.816 49.1211C123.776 48.0015 123.736 46.862 123.696 45.7024C123.416 45.3426 123.236 44.9427 123.156 44.5029C123.116 44.0231 123.076 43.5632 123.036 43.1234C122.916 43.0035 122.776 42.8835 122.616 42.7636C122.496 42.6436 122.416 42.4837 122.376 42.2837C122.056 42.2038 121.816 42.1638 121.656 42.1638C121.095 42.1638 120.615 42.3037 120.215 42.5836C119.855 42.8235 119.515 42.9435 119.195 42.9435C118.875 42.9435 118.575 42.9035 118.295 42.8235C118.015 42.7436 117.734 42.7036 117.454 42.7036C117.214 42.7036 117.074 42.7636 117.034 42.8835C117.034 42.9635 116.954 43.0434 116.794 43.1234C116.674 43.2034 116.394 43.2834 115.954 43.3633C115.514 43.4433 115.014 43.5233 114.453 43.6032C113.933 43.6432 113.413 43.6832 112.893 43.7232C112.413 43.7632 112.093 43.7832 111.933 43.7832C111.293 43.7832 110.812 43.6632 110.492 43.4233C110.132 43.1434 109.712 42.8435 109.232 42.5236C109.312 42.2837 109.352 42.1238 109.352 42.0438C109.352 41.644 109.232 41.3241 108.992 41.0842C108.752 40.8043 108.632 40.5644 108.632 40.3645C108.632 39.9246 108.812 39.5848 109.172 39.3449C109.492 39.105 109.672 38.7251 109.712 38.2053C110.632 37.8055 111.573 37.5056 112.533 37.3057C113.493 37.1057 114.473 36.9458 115.474 36.8258C116.474 36.7059 117.454 36.5659 118.415 36.406C119.415 36.2461 120.395 35.9862 121.355 35.6263C121.636 35.6663 121.896 35.7063 122.136 35.7463C122.416 35.7463 122.696 35.7463 122.976 35.7463C124.176 35.7463 125.357 35.6263 126.517 35.3864C127.717 35.1065 128.938 34.9666 130.178 34.9666C130.498 34.9666 130.818 34.9865 131.138 35.0265C131.458 35.0665 131.779 35.1265 132.099 35.2065C133.699 34.9666 135.28 34.7066 136.84 34.4268C138.44 34.1469 140.081 33.907 141.761 33.707C142.562 33.6271 143.342 33.5671 144.102 33.5271C144.902 33.4471 145.703 33.3472 146.503 33.2272C146.783 33.1872 146.983 33.1273 147.103 33.0473C147.263 32.9273 147.343 32.7074 147.343 32.3875C147.703 32.5475 148.103 32.6274 148.543 32.6274C149.224 32.6274 149.884 32.5075 150.524 32.2676C151.164 32.0277 151.824 31.9077 152.505 31.9077C152.665 31.9077 152.805 31.9277 152.925 31.9677C153.045 31.9677 153.165 31.9677 153.285 31.9677C153.565 31.9677 153.705 31.8478 153.705 31.6078C153.745 31.328 153.945 31.148 154.305 31.0681C154.585 30.9881 154.985 30.9281 155.505 30.8881C156.026 30.8481 156.566 30.8081 157.126 30.7682C157.726 30.6882 158.266 30.6082 158.746 30.5283C159.267 30.4083 159.647 30.2484 159.887 30.0484L160.307 29.3887C161.027 29.4287 161.547 29.7486 161.867 30.3483C162.227 30.9081 162.428 31.5279 162.468 32.2076C162.628 32.3675 162.848 32.4475 163.128 32.4475C163.448 32.4075 163.728 32.3875 163.968 32.3875H164.148Z" fill="#FFF5F5"/>
<path d="M193.737 36.2261C193.497 36.5859 193.357 36.9858 193.317 37.4256C193.277 37.8654 193.257 38.2653 193.257 38.6251C193.257 39.105 193.257 39.5848 193.257 40.0646C193.297 40.5044 193.317 40.9443 193.317 41.3841V42.2837C193.237 42.5636 193.116 42.8435 192.956 43.1234C192.796 43.4033 192.676 43.6832 192.596 43.9631C192.036 45.4425 191.756 46.922 191.756 48.4014V48.5213C191.556 49.0012 191.356 49.441 191.156 49.8408C190.996 50.2407 190.836 50.6405 190.676 51.0404C190.516 51.4002 190.396 51.8001 190.316 52.2399C190.236 52.6398 190.216 53.1196 190.256 53.6794C189.695 55.0788 188.955 56.3583 188.035 57.5179C187.115 58.6374 186.214 59.797 185.334 60.9965C184.494 61.3164 183.714 61.7363 182.994 62.2561C182.313 62.7759 181.653 63.3556 181.013 63.9954C179.773 64.3952 178.552 64.8551 177.352 65.3749C176.152 65.8947 175.071 66.5944 174.111 67.474C173.351 67.554 172.59 67.674 171.83 67.8339C171.07 67.9938 170.33 68.2338 169.61 68.5536H168.889C168.529 68.5536 168.269 68.4737 168.109 68.3137C167.589 68.5936 167.049 68.7935 166.489 68.9135C165.929 68.9935 165.368 69.0334 164.808 69.0334C164.088 69.0334 163.368 68.9935 162.648 68.9135C161.967 68.7935 161.267 68.6736 160.547 68.5536C160.147 67.9939 159.587 67.574 158.866 67.2941C158.146 66.9742 157.506 66.6744 156.946 66.3945C155.786 64.7951 154.945 63.2557 154.425 61.7762C153.905 60.2568 153.365 58.5575 152.805 56.6782C152.885 56.1184 153.025 55.5786 153.225 55.0588C153.425 54.499 153.505 53.8993 153.465 53.2595C154.185 51.1803 155.125 49.301 156.286 47.6217C157.486 45.9023 158.846 44.263 160.367 42.7036C160.367 42.4637 160.407 42.2637 160.487 42.1038C160.607 41.9439 160.627 41.704 160.547 41.3841C160.587 41.4241 160.667 41.4441 160.787 41.4441C161.107 41.4441 161.307 41.3641 161.387 41.2042C161.467 41.0042 161.487 40.7843 161.447 40.5444C162.888 39.6248 164.188 38.5652 165.348 37.3656C166.549 36.1661 167.909 35.1665 169.43 34.3668C169.55 34.0069 169.75 33.707 170.03 33.4671C170.31 33.2272 170.53 32.9473 170.69 32.6274C171.97 32.2676 173.131 31.7278 174.171 31.0081C175.211 30.2884 176.312 29.6486 177.472 29.0888C178.112 28.729 178.712 28.489 179.272 28.3691C179.873 28.2092 180.513 28.0492 181.193 27.8893C181.433 27.8093 181.653 27.7493 181.853 27.7093C182.053 27.6694 182.273 27.6494 182.513 27.6494C183.234 27.6494 183.934 27.7893 184.614 28.0692C185.294 28.3091 185.994 28.4291 186.715 28.4291C186.915 28.4291 187.075 28.4291 187.195 28.4291C187.355 28.3891 187.515 28.3491 187.675 28.3091C188.355 29.1488 189.215 29.7885 190.256 30.2284C190.496 30.8281 190.776 31.3479 191.096 31.7878C191.456 32.2276 191.816 32.6674 192.176 33.1073C192.536 33.5071 192.856 33.9669 193.136 34.4867C193.457 34.9666 193.657 35.5463 193.737 36.2261ZM187.735 39.3449C187.735 39.1449 187.715 38.965 187.675 38.8051C187.275 38.6851 186.895 38.5252 186.535 38.3253C186.174 38.1253 185.774 38.0254 185.334 38.0254C185.054 38.0254 184.774 38.0854 184.494 38.2053C184.454 37.9254 184.334 37.7255 184.134 37.6055C183.974 37.4856 183.774 37.3856 183.534 37.3057C183.334 37.1857 183.114 37.1057 182.873 37.0657C182.673 36.9858 182.493 36.8658 182.333 36.7059C182.213 36.386 182.073 36.0661 181.913 35.7463C181.793 35.3864 181.553 35.1265 181.193 34.9666C180.833 35.3264 180.413 35.6263 179.933 35.8662C179.452 36.0661 178.952 36.266 178.432 36.466C177.952 36.6659 177.472 36.9058 176.992 37.1857C176.552 37.4656 176.172 37.8055 175.851 38.2053H174.771C174.531 38.6451 174.191 38.985 173.751 39.2249C173.311 39.4248 172.931 39.7247 172.61 40.1246C171.97 40.4444 171.37 40.8443 170.81 41.3241C170.29 41.7639 169.77 42.2438 169.249 42.7636C168.729 43.2434 168.209 43.7432 167.689 44.263C167.209 44.7828 166.689 45.2626 166.129 45.7024C165.608 46.822 165.028 47.8016 164.388 48.6413C163.788 49.441 163.208 50.2607 162.648 51.1003C162.127 51.94 161.667 52.8597 161.267 53.8593C160.907 54.8189 160.727 56.0185 160.727 57.4579V58.0577C160.727 58.2576 160.747 58.4575 160.787 58.6574C161.307 59.2172 161.727 59.817 162.047 60.4567C162.407 61.0965 162.988 61.5563 163.788 61.8362C164.588 62.1561 165.428 62.296 166.309 62.2561C167.229 62.2161 168.109 62.316 168.949 62.5559C170.87 62.1961 172.711 61.6163 174.471 60.8166C176.272 59.9769 177.972 58.9773 179.573 57.8178C179.813 57.6178 180.093 57.4179 180.413 57.218C180.733 56.9781 180.993 56.7382 181.193 56.4983C181.393 56.2983 181.553 56.0784 181.673 55.8385C181.833 55.5986 181.993 55.3787 182.153 55.1788C182.473 54.659 182.833 54.1392 183.234 53.6194C183.634 53.0996 184.054 52.6198 184.494 52.1799C184.694 51.3003 184.954 50.4606 185.274 49.6609C185.594 48.8212 185.914 48.0015 186.234 47.2018C186.555 46.4022 186.815 45.5825 187.015 44.7428C187.255 43.9031 187.375 43.0235 187.375 42.1038C187.375 41.9039 187.355 41.684 187.315 41.4441C187.315 41.2042 187.295 40.9842 187.255 40.7843C187.575 40.3445 187.735 39.8647 187.735 39.3449Z" fill="#FFF5F5"/>
<path d="M274.64 60.5167C274.56 61.1165 274.34 61.5763 273.98 61.8962C273.66 62.2161 273.28 62.516 272.84 62.7958C272.64 62.7559 272.44 62.7359 272.24 62.7359C272.08 62.6959 271.9 62.6759 271.699 62.6759C270.459 62.6359 269.279 62.7958 268.158 63.1557C267.078 63.5156 265.958 63.7755 264.797 63.9354C264.397 64.0154 264.017 64.0554 263.657 64.0554C263.337 64.0154 262.997 64.0354 262.637 64.1153C261.356 64.3153 259.996 64.4752 258.556 64.5952C257.115 64.7151 255.675 64.8751 254.234 65.075C252.794 65.2349 251.374 65.4548 249.973 65.7347C248.613 65.9746 247.332 66.3345 246.132 66.8143C246.012 66.7343 245.892 66.6544 245.772 66.5744C245.652 66.4544 245.512 66.3945 245.352 66.3945C244.952 66.3945 244.572 66.4544 244.211 66.5744C243.851 66.6944 243.491 66.7343 243.131 66.6944C242.731 66.9343 242.291 67.1142 241.811 67.2341C241.371 67.3141 240.91 67.3941 240.43 67.474C239.99 67.514 239.55 67.594 239.11 67.714C238.67 67.8339 238.25 68.0538 237.85 68.3737C237.529 68.2138 237.129 68.1338 236.649 68.1338C236.209 68.0938 235.909 67.9339 235.749 67.654C234.829 68.0938 233.848 68.3737 232.808 68.4937C231.808 68.6136 230.787 68.6536 229.747 68.6136C229.067 68.5736 228.287 68.4737 227.406 68.3137C226.526 68.1538 225.646 67.9339 224.766 67.654C223.885 67.3341 223.065 66.9742 222.305 66.5744C221.545 66.1346 220.965 65.6148 220.564 65.015C220.284 64.6151 220.084 64.1753 219.964 63.6955C219.844 63.2157 219.564 62.8558 219.124 62.6159C219.244 61.6963 219.384 60.7966 219.544 59.917C219.704 59.0373 219.864 58.1376 220.024 57.218C220.825 56.5383 221.585 55.8185 222.305 55.0588C223.025 54.2991 223.705 53.4994 224.346 52.6597C225.106 52.2999 225.806 51.8601 226.446 51.3403C227.126 50.8205 227.787 50.3007 228.427 49.7809C229.107 49.2211 229.767 48.6813 230.407 48.1615C231.088 47.6417 231.808 47.1819 232.568 46.782C232.688 46.5021 232.848 46.2822 233.048 46.1223C233.288 45.9223 233.528 45.7424 233.768 45.5825C234.008 45.3825 234.229 45.1826 234.429 44.9827C234.629 44.7428 234.769 44.4629 234.849 44.143C236.249 43.3033 237.469 42.2438 238.51 40.9642C239.55 39.6847 240.23 38.2453 240.55 36.6459C239.87 36.0861 239.09 35.7263 238.21 35.5663C237.369 35.3664 236.489 35.2264 235.569 35.1465C234.769 35.1065 233.928 35.1065 233.048 35.1465C232.208 35.1865 231.348 35.1665 230.467 35.0865C229.587 35.3664 228.667 35.5463 227.707 35.6263C226.786 35.7063 225.866 35.7862 224.946 35.8662C224.026 35.9062 223.105 36.0261 222.185 36.2261C221.305 36.386 220.444 36.7059 219.604 37.1857C219.444 37.1857 219.284 37.1657 219.124 37.1257C219.004 37.0857 218.864 37.0657 218.704 37.0657C217.424 37.0258 216.223 37.2857 215.103 37.8454C213.983 38.3652 212.882 38.885 211.802 39.4048C211.722 39.5648 211.682 39.6847 211.682 39.7647C211.682 40.0046 211.722 40.2445 211.802 40.4844C211.922 40.6844 211.982 40.9043 211.982 41.1442C211.942 41.1842 211.922 41.2241 211.922 41.2641C211.922 41.3041 211.902 41.3441 211.862 41.3841C211.822 41.584 211.762 41.7639 211.682 41.9239C211.642 42.0838 211.582 42.2637 211.502 42.4637C211.062 43.7432 210.822 45.0027 210.782 46.2422C210.742 47.2818 210.742 48.3014 210.782 49.301C210.822 50.3007 210.822 51.3203 210.782 52.3599C210.702 53.6394 210.502 54.8389 210.181 55.9585C210.382 56.9181 210.562 57.9377 210.722 59.0173C210.882 60.0569 211.082 61.0965 211.322 62.1361C211.562 63.1757 211.842 64.1953 212.162 65.1949C212.522 66.1546 212.982 67.0742 213.542 67.9539C213.502 68.0338 213.522 68.0938 213.602 68.1338C213.682 68.1738 213.763 68.1938 213.843 68.1938H214.323C214.523 68.1938 214.603 68.2737 214.563 68.4337C214.643 68.5536 214.703 68.6736 214.743 68.7935C214.783 68.8735 214.863 68.9535 214.983 69.0334C215.063 69.1534 215.063 69.3133 214.983 69.5133C214.943 70.313 214.743 71.0527 214.383 71.7324C214.023 72.4121 213.803 73.1519 213.723 73.9516C213.242 74.0715 212.802 74.1315 212.402 74.1315C211.722 74.0915 211.122 73.8916 210.602 73.5317C210.081 73.2118 209.601 72.812 209.161 72.3322C208.721 71.8524 208.301 71.3725 207.901 70.8927C207.501 70.3729 207.061 69.9331 206.58 69.5732C206.3 68.4537 206.02 67.2141 205.74 65.8547C205.5 64.4952 205.08 63.3356 204.48 62.376C204.64 62.0161 204.72 61.5763 204.72 61.0565C204.76 60.2568 204.68 59.4771 204.48 58.7174C204.32 57.9177 204.28 57.118 204.36 56.3183C204.36 55.8785 204.4 55.4387 204.48 54.9988C204.6 54.559 204.68 54.1192 204.72 53.6794C204.76 52.9996 204.68 52.3399 204.48 51.7001C204.32 51.0604 204.26 50.4006 204.3 49.7209C204.34 49.401 204.4 49.1011 204.48 48.8212C204.6 48.5013 204.76 48.2215 204.96 47.9815C204.76 47.5017 204.7 47.0419 204.78 46.6021C204.82 45.9223 204.9 45.2826 205.02 44.6828C205.14 44.083 205.22 43.4833 205.26 42.8835C205.26 42.5636 205.24 42.2637 205.2 41.9839C205.16 41.664 205.1 41.3641 205.02 41.0842L204.48 40.9043C204.24 40.9043 204 40.9642 203.76 41.0842C203.56 41.2042 203.379 41.3441 203.219 41.504C203.059 41.664 202.919 41.8039 202.799 41.9239C202.679 42.0038 202.559 42.0438 202.439 42.0438C202.359 42.0438 202.259 42.0438 202.139 42.0438C202.059 42.0038 201.979 41.9839 201.899 41.9839C201.819 41.9839 201.659 42.0638 201.419 42.2238C201.219 42.3837 200.959 42.5636 200.639 42.7636C200.359 42.9235 200.079 43.1034 199.798 43.3033C199.518 43.4633 199.298 43.5632 199.138 43.6032C198.698 43.5233 198.338 43.3833 198.058 43.1834C197.818 42.9435 197.578 42.7236 197.338 42.5236C197.138 42.2837 196.918 42.0838 196.678 41.9239C196.437 41.7239 196.137 41.644 195.777 41.684C195.657 41.4441 195.597 41.1842 195.597 40.9043C195.557 40.6244 195.557 40.3445 195.597 40.0646V39.105C195.877 38.5852 196.257 38.1653 196.738 37.8454C197.178 37.4856 197.658 37.1857 198.178 36.9458L199.738 36.2261C200.259 35.9862 200.739 35.6863 201.179 35.3264H201.719C202.439 35.3664 203.059 35.2265 203.58 34.9066C204.14 34.5867 204.66 34.2268 205.14 33.827C205.62 33.3872 206.1 32.9473 206.58 32.5075C207.101 32.0677 207.661 31.7278 208.261 31.4879C208.701 31.6878 209.161 31.8677 209.641 32.0277C210.121 32.1476 210.622 32.2276 211.142 32.2676C211.662 32.2676 212.202 32.1876 212.762 32.0277C213.322 31.8677 213.762 31.5679 214.083 31.128C214.283 31.208 214.443 31.268 214.563 31.308C214.723 31.308 214.903 31.308 215.103 31.308C215.703 31.3479 216.303 31.268 216.903 31.0681C217.504 30.8281 218.084 30.5483 218.644 30.2284C219.444 30.2684 220.224 30.2284 220.985 30.1084C221.785 29.9485 222.565 29.7885 223.325 29.6286C224.126 29.4687 224.906 29.3287 225.666 29.2088C226.466 29.0488 227.266 28.9889 228.067 29.0288C229.387 29.0688 230.687 28.9489 231.968 28.669C233.248 28.3891 234.549 28.2891 235.869 28.3691C236.789 28.4091 237.689 28.489 238.57 28.609C239.49 28.689 240.41 28.709 241.331 28.669C241.851 28.9089 242.311 29.1288 242.711 29.3287C243.151 29.4887 243.691 29.5286 244.331 29.4487C245.612 30.5283 246.772 31.7878 247.812 33.2272V34.2468C247.772 35.1665 247.612 36.0661 247.332 36.9458C247.052 37.8255 246.712 38.7051 246.312 39.5848C245.952 40.4244 245.552 41.2641 245.112 42.1038C244.672 42.9035 244.251 43.7032 243.851 44.5029C241.251 46.862 238.65 49.2011 236.049 51.5202C233.448 53.8393 230.767 56.0784 228.007 58.2376C227.927 58.6374 227.807 58.9973 227.647 59.3172C227.527 59.6371 227.447 59.9769 227.406 60.3368C227.406 60.5367 227.427 60.6967 227.467 60.8166C227.747 60.8966 227.987 61.0565 228.187 61.2964C228.427 61.4963 228.507 61.7762 228.427 62.1361H228.967C229.167 62.1361 229.267 62.2161 229.267 62.376L230.227 62.436C231.748 62.516 233.268 62.476 234.789 62.316C236.309 62.1561 237.83 61.9762 239.35 61.7762C240.91 61.5763 242.451 61.3964 243.971 61.2364C245.492 61.0365 247.012 60.9166 248.533 60.8766C248.893 60.7566 249.273 60.6567 249.673 60.5767C250.073 60.4967 250.433 60.3368 250.753 60.0969H250.933C251.213 60.0969 251.414 60.1769 251.534 60.3368C251.694 60.4967 251.914 60.5967 252.194 60.6367C252.394 60.6367 252.594 60.5967 252.794 60.5167C253.034 60.4368 253.274 60.3768 253.514 60.3368C254.074 60.1769 254.654 60.0769 255.255 60.0369C255.895 59.9969 256.515 59.9369 257.115 59.857C259.436 59.6571 261.737 59.5371 264.017 59.4971C266.298 59.4171 268.579 59.1173 270.859 58.5975C271.059 58.8774 271.339 59.0773 271.699 59.1972C272.06 59.2772 272.44 59.3772 272.84 59.4971C273.24 59.5771 273.6 59.677 273.92 59.797C274.28 59.917 274.52 60.1569 274.64 60.5167Z" fill="#FFF5F5"/>
<path d="M190.636 140.466C190.636 140.786 190.516 141.006 190.276 141.126C190.076 141.246 190.036 141.526 190.156 141.965C189.836 142.005 189.555 142.165 189.315 142.445C189.075 142.725 188.795 142.865 188.475 142.865C188.275 142.865 188.115 142.765 187.995 142.565C187.915 142.845 187.755 143.045 187.515 143.165C187.315 143.285 187.095 143.385 186.855 143.465C186.615 143.545 186.374 143.645 186.134 143.765C185.894 143.885 185.734 144.065 185.654 144.305H185.354C184.874 144.305 184.494 144.504 184.214 144.904C183.974 145.304 183.674 145.504 183.314 145.504C183.194 145.504 183.114 145.484 183.074 145.444C182.873 145.484 182.793 145.604 182.833 145.804C182.873 146.044 182.813 146.204 182.653 146.284H182.353C181.313 146.284 180.253 146.504 179.172 146.943C178.092 147.383 176.992 147.883 175.871 148.443C174.791 149.003 173.671 149.522 172.51 150.002C171.39 150.522 170.25 150.862 169.089 151.022C168.849 151.262 168.549 151.442 168.189 151.562C167.869 151.722 167.509 151.842 167.109 151.922C166.709 152.002 166.309 152.081 165.909 152.161C165.548 152.281 165.228 152.461 164.948 152.701C163.948 152.781 162.948 152.961 161.947 153.241C160.947 153.521 159.947 153.781 158.946 154.021C157.986 154.301 156.986 154.521 155.946 154.681C154.945 154.88 153.925 154.94 152.885 154.86C152.565 155.1 152.205 155.28 151.804 155.4C151.444 155.56 151.104 155.76 150.784 156C149.144 155.76 147.503 155.58 145.863 155.46C144.262 155.34 142.682 155.06 141.121 154.621C141.121 154.501 141.081 154.421 141.001 154.381C140.921 154.341 140.821 154.301 140.701 154.261C140.621 154.261 140.541 154.221 140.461 154.141C140.381 154.101 140.381 154.001 140.461 153.841C140.101 153.961 139.781 154.021 139.501 154.021C139.101 154.021 138.701 153.921 138.3 153.721C137.94 153.521 137.54 153.301 137.1 153.061C136.7 152.821 136.28 152.581 135.84 152.341C135.4 152.141 134.919 152.042 134.399 152.042C134.079 151.722 133.779 151.402 133.499 151.082C133.259 150.762 133.079 150.362 132.959 149.882C132.799 149.842 132.619 149.842 132.419 149.882C132.259 149.922 132.119 149.942 131.999 149.942C131.759 149.942 131.638 149.862 131.638 149.702C130.798 149.103 130.198 148.463 129.838 147.783C129.478 147.103 129.078 146.324 128.638 145.444C128.518 145.164 128.358 144.924 128.157 144.724C127.997 144.564 127.877 144.364 127.797 144.125C127.637 143.725 127.537 143.305 127.497 142.865C127.457 142.425 127.417 142.005 127.377 141.606C127.377 141.166 127.317 140.746 127.197 140.346C127.117 139.906 126.937 139.506 126.657 139.146C126.737 137.627 126.897 136.108 127.137 134.588C127.417 133.069 127.757 131.549 128.157 130.03C128.318 129.35 128.498 128.691 128.698 128.051C128.898 127.411 129.078 126.751 129.238 126.072C129.278 125.832 129.338 125.672 129.418 125.592C129.538 125.472 129.638 125.392 129.718 125.352L129.958 125.172C130.038 125.092 130.098 124.972 130.138 124.812L130.618 122.773C130.938 121.453 131.358 120.174 131.879 118.934C132.399 117.695 133.099 116.555 133.979 115.516C134.059 114.516 134.279 113.576 134.639 112.697C135.039 111.777 135.48 110.897 135.96 110.058C136.44 109.178 136.92 108.318 137.4 107.479C137.88 106.639 138.26 105.739 138.541 104.78L138.48 104.66C138.48 104.5 138.561 104.42 138.721 104.42C138.921 104.38 139.061 104.36 139.141 104.36C139.181 103.72 139.321 103.18 139.561 102.74C139.841 102.261 140.121 101.821 140.401 101.421C140.721 101.021 141.001 100.601 141.241 100.161C141.521 99.6817 141.681 99.1219 141.721 98.4821C142.482 98.0423 143.122 97.5025 143.642 96.8627C144.202 96.183 144.722 95.5033 145.202 94.8235C145.723 94.1038 146.263 93.4241 146.823 92.7843C147.383 92.1046 148.063 91.5648 148.864 91.1649C149.064 90.925 149.124 90.5852 149.044 90.1453C150.284 89.2257 151.564 88.406 152.885 87.6863C154.205 86.9665 155.445 86.1269 156.606 85.1672H158.766C159.287 84.7674 159.867 84.5675 160.507 84.5675C160.987 84.5675 161.447 84.6674 161.887 84.8674C162.367 85.0673 162.808 85.3072 163.208 85.5871C163.648 85.827 164.088 86.0869 164.528 86.3668C164.968 86.6067 165.408 86.7866 165.848 86.9066C166.289 87.5063 166.589 88.2061 166.749 89.0058C166.949 89.7655 167.149 90.4852 167.349 91.1649C166.989 92.2445 166.769 93.3641 166.689 94.5236C166.609 95.6432 166.469 96.7628 166.269 97.8824C165.989 98.2022 165.748 98.5621 165.548 98.9619C165.348 99.3218 165.128 99.7017 164.888 100.102C164.688 100.461 164.468 100.821 164.228 101.181C163.988 101.501 163.668 101.761 163.268 101.961C162.948 103.12 162.448 104.04 161.767 104.72C161.087 105.399 160.427 106.199 159.787 107.119C159.187 107.519 158.546 107.719 157.866 107.719C157.306 107.719 156.806 107.599 156.366 107.359C155.926 107.079 155.525 106.739 155.165 106.339C154.805 105.899 154.505 105.439 154.265 104.96C154.065 104.44 153.905 103.94 153.785 103.46C154.065 102.621 154.505 101.901 155.105 101.301C155.746 100.701 156.386 100.102 157.026 99.5017C157.666 98.902 158.226 98.2622 158.706 97.5825C159.187 96.9027 159.427 96.083 159.427 95.1234C159.427 95.0434 159.407 94.9635 159.367 94.8835C159.367 94.8035 159.367 94.7236 159.367 94.6436C159.367 94.4837 159.427 94.3437 159.547 94.2238C159.667 94.1038 159.787 94.0038 159.907 93.9239L160.267 93.624C160.387 93.504 160.447 93.3641 160.447 93.2042C160.447 93.0442 160.367 92.8843 160.207 92.7243C158.686 92.8443 157.526 93.1042 156.726 93.504C155.966 93.9039 155.365 94.3437 154.925 94.8235C154.485 95.3033 154.085 95.7832 153.725 96.263C153.405 96.7028 152.925 97.0227 152.285 97.2226C152.164 97.5425 151.984 97.8224 151.744 98.0623C151.544 98.2622 151.324 98.4821 151.084 98.722C150.844 98.922 150.624 99.1619 150.424 99.4417C150.264 99.7216 150.164 100.062 150.124 100.461H149.044C148.884 100.821 148.643 101.181 148.323 101.541C148.043 101.861 147.743 102.181 147.423 102.501C147.143 102.82 146.883 103.18 146.643 103.58C146.443 103.94 146.383 104.34 146.463 104.78C146.023 104.94 145.683 105.2 145.443 105.559C145.242 105.919 144.942 106.219 144.542 106.459V106.819C144.542 107.139 144.482 107.439 144.362 107.719C144.242 107.998 144.222 108.298 144.302 108.618C143.822 109.058 143.462 109.618 143.222 110.298C143.022 110.937 142.802 111.537 142.562 112.097C142.002 112.377 141.621 112.757 141.421 113.236C141.221 113.716 141.121 114.276 141.121 114.916C140.521 115.516 139.981 116.215 139.501 117.015C139.021 117.815 138.581 118.634 138.18 119.474C137.82 120.314 137.48 121.173 137.16 122.053C136.84 122.933 136.5 123.752 136.14 124.512V126.251C135.58 126.891 135.18 127.651 134.939 128.531C134.739 129.37 134.419 130.13 133.979 130.81C133.899 131.25 133.859 131.689 133.859 132.129C133.899 132.569 133.919 133.009 133.919 133.449C133.919 133.928 133.879 134.428 133.799 134.948C133.719 135.468 133.579 135.948 133.379 136.388C133.539 136.987 133.659 137.707 133.739 138.547C133.819 139.346 133.959 140.166 134.159 141.006C134.359 141.805 134.639 142.545 134.999 143.225C135.36 143.865 135.88 144.304 136.56 144.544C136.72 145.424 137.1 146.084 137.7 146.524C138.34 147.003 139.061 147.383 139.861 147.663C140.661 147.943 141.481 148.183 142.322 148.383C143.162 148.623 143.902 148.923 144.542 149.283C144.782 149.163 145.062 149.103 145.383 149.103C145.703 149.103 145.983 149.143 146.223 149.223C146.503 149.303 146.803 149.383 147.123 149.463C147.683 149.383 148.363 149.343 149.164 149.343C150.004 149.343 150.844 149.303 151.684 149.223C152.525 149.183 153.305 149.083 154.025 148.923C154.745 148.763 155.325 148.463 155.766 148.023C156.046 148.023 156.226 148.103 156.306 148.263C156.426 148.423 156.626 148.503 156.906 148.503C157.186 148.503 157.606 148.423 158.166 148.263C158.726 148.143 159.307 147.983 159.907 147.783C160.507 147.623 161.067 147.443 161.587 147.243C162.147 147.043 162.548 146.864 162.788 146.704C162.908 146.744 163.028 146.764 163.148 146.764H163.568C164.128 146.764 164.648 146.664 165.128 146.464C165.608 146.264 166.129 146.204 166.689 146.284C168.529 145.364 170.39 144.564 172.27 143.885C174.191 143.245 176.132 142.665 178.092 142.145C178.332 141.785 178.612 141.526 178.932 141.366C179.292 141.206 179.673 141.086 180.073 141.006C180.473 140.886 180.873 140.806 181.273 140.766C181.673 140.686 182.053 140.586 182.413 140.466C182.653 140.346 182.853 140.206 183.014 140.046C183.214 139.846 183.454 139.686 183.734 139.566C184.014 139.446 184.314 139.366 184.634 139.326C184.994 139.286 185.334 139.246 185.654 139.206C186.014 139.126 186.334 139.027 186.615 138.907C186.935 138.787 187.195 138.587 187.395 138.307C187.955 138.547 188.515 138.807 189.075 139.087C189.675 139.366 190.176 139.766 190.576 140.286L190.636 140.466Z" fill="#FFF5F5"/>
<path d="M219.564 109.158C219.324 109.518 219.184 109.918 219.144 110.358C219.104 110.797 219.084 111.197 219.084 111.557C219.084 112.037 219.084 112.517 219.084 112.997C219.124 113.436 219.144 113.876 219.144 114.316V115.216C219.064 115.496 218.944 115.775 218.784 116.055C218.624 116.335 218.504 116.615 218.424 116.895C217.864 118.374 217.584 119.854 217.584 121.333V121.453C217.384 121.933 217.184 122.373 216.983 122.773C216.823 123.173 216.663 123.572 216.503 123.972C216.343 124.332 216.223 124.732 216.143 125.172C216.063 125.572 216.043 126.052 216.083 126.611C215.523 128.011 214.783 129.29 213.863 130.45C212.942 131.569 212.042 132.729 211.162 133.928C210.322 134.248 209.541 134.668 208.821 135.188C208.141 135.708 207.481 136.288 206.84 136.927C205.6 137.327 204.38 137.787 203.179 138.307C201.979 138.827 200.899 139.526 199.938 140.406C199.178 140.486 198.418 140.606 197.658 140.766C196.898 140.926 196.157 141.166 195.437 141.486H194.717C194.357 141.486 194.097 141.406 193.937 141.246C193.417 141.526 192.876 141.725 192.316 141.845C191.756 141.925 191.196 141.965 190.636 141.965C189.916 141.965 189.195 141.925 188.475 141.845C187.795 141.725 187.095 141.606 186.374 141.486C185.974 140.926 185.414 140.506 184.694 140.226C183.974 139.906 183.334 139.606 182.773 139.326C181.613 137.727 180.773 136.188 180.253 134.708C179.733 133.189 179.192 131.489 178.632 129.61C178.712 129.05 178.852 128.511 179.052 127.991C179.252 127.431 179.332 126.831 179.292 126.191C180.013 124.112 180.953 122.233 182.113 120.554C183.314 118.834 184.674 117.195 186.194 115.636C186.194 115.396 186.234 115.196 186.314 115.036C186.435 114.876 186.455 114.636 186.374 114.316C186.415 114.356 186.495 114.376 186.615 114.376C186.935 114.376 187.135 114.296 187.215 114.136C187.295 113.936 187.315 113.716 187.275 113.476C188.715 112.557 190.016 111.497 191.176 110.298C192.376 109.098 193.737 108.098 195.257 107.299C195.377 106.939 195.577 106.639 195.857 106.399C196.137 106.159 196.357 105.879 196.517 105.559C197.798 105.2 198.958 104.66 199.998 103.94C201.039 103.22 202.139 102.581 203.299 102.021C203.94 101.661 204.54 101.421 205.1 101.301C205.7 101.141 206.34 100.981 207.021 100.821C207.261 100.741 207.481 100.681 207.681 100.641C207.881 100.601 208.101 100.581 208.341 100.581C209.061 100.581 209.761 100.721 210.442 101.001C211.122 101.241 211.822 101.361 212.542 101.361C212.742 101.361 212.902 101.361 213.022 101.361C213.182 101.321 213.342 101.281 213.502 101.241C214.183 102.081 215.043 102.72 216.083 103.16C216.323 103.76 216.603 104.28 216.923 104.72C217.284 105.16 217.644 105.599 218.004 106.039C218.364 106.439 218.684 106.899 218.964 107.419C219.284 107.898 219.484 108.478 219.564 109.158ZM213.562 112.277C213.562 112.077 213.542 111.897 213.502 111.737C213.102 111.617 212.722 111.457 212.362 111.257C212.002 111.057 211.602 110.957 211.162 110.957C210.882 110.957 210.602 111.017 210.322 111.137C210.281 110.857 210.161 110.657 209.961 110.537C209.801 110.418 209.601 110.318 209.361 110.238C209.161 110.118 208.941 110.038 208.701 109.998C208.501 109.918 208.321 109.798 208.161 109.638C208.041 109.318 207.901 108.998 207.741 108.678C207.621 108.318 207.381 108.058 207.021 107.898C206.66 108.258 206.24 108.558 205.76 108.798C205.28 108.998 204.78 109.198 204.26 109.398C203.78 109.598 203.299 109.838 202.819 110.118C202.379 110.398 201.999 110.737 201.679 111.137H200.599C200.359 111.577 200.018 111.917 199.578 112.157C199.138 112.357 198.758 112.657 198.438 113.057C197.798 113.376 197.198 113.776 196.637 114.256C196.117 114.696 195.597 115.176 195.077 115.696C194.557 116.175 194.037 116.675 193.517 117.195C193.036 117.715 192.516 118.195 191.956 118.634C191.436 119.754 190.856 120.734 190.216 121.573C189.615 122.373 189.035 123.193 188.475 124.032C187.955 124.872 187.495 125.792 187.095 126.791C186.735 127.751 186.555 128.95 186.555 130.39V130.99C186.555 131.19 186.575 131.389 186.615 131.589C187.135 132.149 187.555 132.749 187.875 133.389C188.235 134.028 188.815 134.488 189.615 134.768C190.416 135.088 191.256 135.228 192.136 135.188C193.056 135.148 193.937 135.248 194.777 135.488C196.698 135.128 198.538 134.548 200.299 133.749C202.099 132.909 203.8 131.909 205.4 130.75C205.64 130.55 205.92 130.35 206.24 130.15C206.56 129.91 206.82 129.67 207.021 129.43C207.221 129.23 207.381 129.01 207.501 128.77C207.661 128.531 207.821 128.311 207.981 128.111C208.301 127.591 208.661 127.071 209.061 126.551C209.461 126.032 209.881 125.552 210.322 125.112C210.522 124.232 210.782 123.393 211.102 122.593C211.422 121.753 211.742 120.933 212.062 120.134C212.382 119.334 212.642 118.514 212.842 117.675C213.082 116.835 213.202 115.955 213.202 115.036C213.202 114.836 213.182 114.616 213.142 114.376C213.142 114.136 213.122 113.916 213.082 113.716C213.402 113.276 213.562 112.797 213.562 112.277Z" fill="#FFF5F5"/>
<path d="M255.455 136.328C255.455 137.007 255.275 137.607 254.915 138.127C254.594 138.607 254.474 139.206 254.554 139.926C253.994 140.246 253.534 140.666 253.174 141.186C252.814 141.706 252.474 142.245 252.154 142.805C249.513 144.524 246.672 145.904 243.631 146.943C240.63 148.023 237.529 148.563 234.329 148.563C234.128 148.563 233.948 148.463 233.788 148.263C233.628 148.103 233.468 147.923 233.308 147.723C233.148 147.523 232.968 147.323 232.768 147.123C232.608 146.963 232.408 146.883 232.168 146.883C231.888 146.883 231.668 146.943 231.508 147.063C231.508 146.983 231.508 146.904 231.508 146.824C231.548 146.784 231.568 146.724 231.568 146.644C231.568 146.164 231.508 145.664 231.388 145.144C231.268 144.664 231.208 144.185 231.208 143.705C231.208 143.145 231.308 142.685 231.508 142.325H232.228C232.628 142.325 233.008 142.305 233.368 142.265C233.768 142.185 234.188 142.145 234.629 142.145C235.069 142.145 235.469 142.265 235.829 142.505C238.03 142.425 240.11 142.025 242.071 141.306C244.071 140.546 246.092 139.806 248.133 139.087C248.453 138.647 248.633 138.167 248.673 137.647C248.753 137.087 248.913 136.567 249.153 136.088C248.113 135.208 247.052 134.528 245.972 134.048C244.932 133.529 243.711 133.349 242.311 133.509C241.471 132.989 240.57 132.689 239.61 132.609C238.69 132.529 237.75 132.409 236.789 132.249C236.549 132.209 236.289 132.169 236.009 132.129C235.769 132.049 235.509 132.009 235.229 132.009C235.029 132.009 234.829 132.069 234.629 132.189C234.469 132.269 234.429 132.409 234.509 132.609C234.309 132.289 234.028 132.109 233.668 132.069C233.348 131.989 233.068 131.829 232.828 131.589C231.548 131.509 230.427 131.29 229.467 130.93C228.507 130.53 227.447 130.09 226.286 129.61C225.966 129.49 225.646 129.41 225.326 129.37C225.046 129.29 224.766 129.17 224.486 129.01C223.765 128.651 223.185 128.171 222.745 127.571C222.305 126.971 221.965 126.311 221.725 125.592C221.445 124.832 221.245 124.052 221.125 123.253C221.005 122.453 220.885 121.713 220.765 121.033C221.125 120.394 221.465 119.734 221.785 119.054C222.065 118.374 222.305 117.655 222.505 116.895C222.745 116.775 222.985 116.675 223.225 116.595C223.465 116.515 223.725 116.415 224.006 116.295C223.965 116.215 223.945 116.115 223.945 115.995C223.945 115.795 224.005 115.596 224.126 115.396C224.286 115.196 224.326 114.996 224.246 114.796C225.126 113.996 225.966 113.176 226.766 112.337C227.607 111.457 228.327 110.497 228.927 109.458C229.527 109.258 230.007 108.958 230.367 108.558C230.727 108.158 231.088 107.759 231.448 107.359C231.808 106.919 232.208 106.539 232.648 106.219C233.088 105.859 233.648 105.639 234.329 105.559C234.489 105.28 234.709 105.06 234.989 104.9C235.269 104.7 235.549 104.52 235.829 104.36C236.109 104.2 236.369 104.02 236.609 103.82C236.849 103.62 237.029 103.34 237.149 102.98C237.79 102.98 238.37 102.86 238.89 102.621C239.45 102.381 239.99 102.121 240.51 101.841C241.03 101.561 241.551 101.301 242.071 101.061C242.631 100.821 243.231 100.701 243.871 100.701C244.031 100.701 244.191 100.721 244.351 100.761C244.512 100.761 244.692 100.781 244.892 100.821C245.172 101.101 245.352 101.441 245.432 101.841C245.552 102.201 245.632 102.601 245.672 103.04C245.712 103.48 245.732 103.92 245.732 104.36C245.772 104.8 245.852 105.2 245.972 105.559C245.612 106.239 245.212 106.919 244.772 107.599C244.371 108.278 243.831 108.798 243.151 109.158H243.031C242.751 109.198 242.491 109.138 242.251 108.978C242.011 108.818 241.731 108.738 241.411 108.738C241.211 108.738 241.05 108.798 240.93 108.918L240.63 109.218C240.55 109.298 240.43 109.378 240.27 109.458C240.15 109.538 239.97 109.538 239.73 109.458C239.17 109.658 238.95 109.998 239.07 110.478C238.31 110.557 237.67 110.797 237.149 111.197C236.629 111.557 236.149 111.977 235.709 112.457C235.269 112.897 234.829 113.316 234.389 113.716C233.948 114.076 233.428 114.276 232.828 114.316C232.148 115.516 231.308 116.575 230.307 117.495C229.347 118.414 228.547 119.454 227.907 120.614C228.027 120.933 228.107 121.273 228.147 121.633C228.187 121.993 228.247 122.373 228.327 122.773C228.687 123.253 229.107 123.672 229.587 124.032C230.107 124.392 230.607 124.752 231.088 125.112H231.268C232.068 125.112 232.808 125.272 233.488 125.592C234.168 125.872 234.889 126.012 235.649 126.012C236.049 126.012 236.389 125.932 236.669 125.772C237.71 126.012 238.73 126.211 239.73 126.371C240.77 126.531 241.811 126.651 242.851 126.731C243.371 126.811 243.891 126.851 244.411 126.851C244.972 126.851 245.492 126.911 245.972 127.031C246.412 127.151 246.852 127.311 247.292 127.511C247.732 127.671 248.173 127.851 248.613 128.051C249.533 128.451 250.393 128.89 251.193 129.37C252.034 129.85 252.774 130.43 253.414 131.11C254.054 131.749 254.554 132.509 254.915 133.389C255.275 134.228 255.455 135.208 255.455 136.328Z" fill="#FFF5F5"/>
<path d="M307.61 105.319C307.45 105.839 307.19 106.319 306.83 106.759L305.809 108.018C305.489 108.418 305.209 108.858 304.969 109.338C304.769 109.778 304.709 110.298 304.789 110.897C304.709 110.897 304.609 110.897 304.489 110.897C304.369 110.857 304.269 110.837 304.189 110.837C303.549 110.837 303.049 110.997 302.689 111.317C302.368 111.597 301.928 111.837 301.368 112.037C301.288 111.797 301.188 111.577 301.068 111.377C300.948 111.137 300.768 110.977 300.528 110.897C299.568 111.097 298.607 111.257 297.647 111.377C296.687 111.457 295.726 111.577 294.766 111.737C294.326 111.817 293.886 111.937 293.446 112.097C293.006 112.217 292.546 112.337 292.065 112.457C291.825 112.537 291.565 112.577 291.285 112.577C291.005 112.537 290.725 112.537 290.445 112.577C289.485 112.617 288.444 112.697 287.324 112.817C286.204 112.897 285.203 113.196 284.323 113.716C283.923 113.636 283.503 113.576 283.063 113.536C282.623 113.496 282.183 113.476 281.742 113.476C280.782 113.476 279.722 113.576 278.561 113.776C277.441 113.936 276.441 114.276 275.561 114.796C275.361 114.716 275.14 114.656 274.9 114.616C274.7 114.576 274.46 114.556 274.18 114.556C274.1 114.556 274.04 114.576 274 114.616C273.96 114.616 273.9 114.616 273.82 114.616C273.78 114.976 273.82 115.336 273.94 115.696C274.1 116.015 274.36 116.275 274.72 116.475C274.56 116.915 274.48 117.395 274.48 117.915C274.48 118.594 274.52 119.274 274.6 119.954C274.72 120.634 274.78 121.313 274.78 121.993C274.78 122.753 274.68 123.353 274.48 123.792C274.88 124.992 275.08 126.271 275.08 127.631C275.08 128.111 275.04 128.591 274.96 129.07C274.92 129.51 274.9 129.99 274.9 130.51C274.9 130.95 275.06 131.309 275.381 131.589C275.701 131.829 275.861 132.169 275.861 132.609C275.861 132.769 275.821 132.929 275.741 133.089C276.301 132.969 276.841 132.809 277.361 132.609C277.881 132.369 278.421 132.249 278.982 132.249C279.302 132.249 279.602 132.309 279.882 132.429C280.202 132.549 280.482 132.709 280.722 132.909C280.682 133.109 280.642 133.329 280.602 133.569C280.602 133.809 280.602 134.048 280.602 134.288C280.602 134.728 280.602 135.148 280.602 135.548C280.642 135.908 280.682 136.308 280.722 136.747C280.402 137.307 280.022 137.807 279.582 138.247C279.182 138.687 278.902 139.246 278.742 139.926C278.141 139.926 277.601 140.066 277.121 140.346C276.681 140.586 276.261 140.866 275.861 141.186C275.461 141.466 275.06 141.745 274.66 142.025C274.26 142.265 273.82 142.385 273.34 142.385C272.74 142.385 272.32 142.305 272.08 142.145C271.839 141.945 271.659 141.745 271.539 141.546C271.419 141.346 271.299 141.166 271.179 141.006C271.099 140.846 270.899 140.786 270.579 140.826C270.499 140.306 270.339 139.826 270.099 139.386C269.859 138.907 269.599 138.447 269.319 138.007C269.079 137.567 268.819 137.127 268.539 136.687C268.298 136.208 268.118 135.728 267.998 135.248C267.758 134.208 267.658 133.129 267.698 132.009C267.738 130.89 267.558 129.81 267.158 128.77C267.238 128.211 267.298 127.651 267.338 127.091C267.378 126.491 267.398 125.912 267.398 125.352C267.398 124.232 267.358 123.133 267.278 122.053C267.238 120.933 267.198 119.794 267.158 118.634C266.878 118.275 266.698 117.875 266.618 117.435C266.578 116.955 266.538 116.495 266.498 116.055C266.378 115.935 266.238 115.815 266.078 115.696C265.958 115.576 265.878 115.416 265.838 115.216C265.518 115.136 265.278 115.096 265.118 115.096C264.557 115.096 264.077 115.236 263.677 115.516C263.317 115.755 262.977 115.875 262.657 115.875C262.337 115.875 262.037 115.835 261.757 115.755C261.476 115.676 261.196 115.636 260.916 115.636C260.676 115.636 260.536 115.695 260.496 115.815C260.496 115.895 260.416 115.975 260.256 116.055C260.136 116.135 259.856 116.215 259.416 116.295C258.976 116.375 258.476 116.455 257.915 116.535C257.395 116.575 256.875 116.615 256.355 116.655C255.875 116.695 255.555 116.715 255.395 116.715C254.755 116.715 254.274 116.595 253.954 116.355C253.594 116.075 253.174 115.775 252.694 115.456C252.774 115.216 252.814 115.056 252.814 114.976C252.814 114.576 252.694 114.256 252.454 114.016C252.214 113.736 252.094 113.496 252.094 113.296C252.094 112.857 252.274 112.517 252.634 112.277C252.954 112.037 253.134 111.657 253.174 111.137C254.094 110.737 255.035 110.438 255.995 110.238C256.955 110.038 257.935 109.878 258.936 109.758C259.936 109.638 260.916 109.498 261.877 109.338C262.877 109.178 263.857 108.918 264.817 108.558C265.098 108.598 265.358 108.638 265.598 108.678C265.878 108.678 266.158 108.678 266.438 108.678C267.638 108.678 268.819 108.558 269.979 108.318C271.179 108.038 272.4 107.898 273.64 107.898C273.96 107.898 274.28 107.918 274.6 107.958C274.92 107.998 275.24 108.058 275.561 108.138C277.161 107.898 278.742 107.639 280.302 107.359C281.902 107.079 283.543 106.839 285.223 106.639C286.024 106.559 286.804 106.499 287.564 106.459C288.364 106.379 289.165 106.279 289.965 106.159C290.245 106.119 290.445 106.059 290.565 105.979C290.725 105.859 290.805 105.639 290.805 105.319C291.165 105.479 291.565 105.559 292.005 105.559C292.686 105.559 293.346 105.439 293.986 105.2C294.626 104.96 295.286 104.84 295.967 104.84C296.127 104.84 296.267 104.86 296.387 104.9C296.507 104.9 296.627 104.9 296.747 104.9C297.027 104.9 297.167 104.78 297.167 104.54C297.207 104.26 297.407 104.08 297.767 104C298.047 103.92 298.447 103.86 298.967 103.82C299.488 103.78 300.028 103.74 300.588 103.7C301.188 103.62 301.728 103.54 302.208 103.46C302.729 103.34 303.109 103.18 303.349 102.98L303.769 102.321C304.489 102.361 305.009 102.681 305.329 103.28C305.689 103.84 305.889 104.46 305.929 105.14C306.09 105.299 306.31 105.379 306.59 105.379C306.91 105.339 307.19 105.319 307.43 105.319H307.61Z" fill="#FFF5F5"/>
<path d="M342 139.506C341.88 140.066 341.62 140.526 341.22 140.886C340.86 141.206 340.42 141.466 339.899 141.666C339.379 141.865 338.839 142.005 338.279 142.085C337.759 142.125 337.279 142.145 336.839 142.145C336.638 142.145 336.438 142.145 336.238 142.145C336.078 142.105 335.898 142.085 335.698 142.085C335.498 142.085 335.398 142.185 335.398 142.385C335.398 142.585 335.298 142.725 335.098 142.805C334.898 142.725 334.698 142.665 334.498 142.625C334.298 142.585 334.098 142.565 333.898 142.565C333.618 142.565 333.337 142.585 333.057 142.625C332.817 142.665 332.577 142.685 332.337 142.685C332.017 142.685 331.777 142.645 331.617 142.565C331.497 142.485 331.377 142.405 331.257 142.325C331.177 142.205 331.077 142.085 330.957 141.965C330.877 141.845 330.737 141.745 330.537 141.666C330.257 141.546 330.017 141.526 329.816 141.606C329.656 141.686 329.396 141.566 329.036 141.246C328.556 140.846 328.136 140.366 327.776 139.806C327.456 139.206 327.136 138.587 326.816 137.947C326.495 137.307 326.155 136.667 325.795 136.028C325.435 135.388 325.015 134.828 324.535 134.348H324.055C323.335 134.348 322.834 134.648 322.554 135.248C322.354 135.128 322.154 134.988 321.954 134.828C321.754 134.628 321.534 134.468 321.294 134.348C320.374 134.628 319.413 134.868 318.413 135.068C317.413 135.268 316.413 135.368 315.412 135.368H314.572C314.332 135.368 314.072 135.328 313.792 135.248C313.392 135.408 313.032 135.608 312.711 135.848C312.391 136.048 312.031 136.148 311.631 136.148C311.391 136.148 311.111 136.068 310.791 135.908C310.551 135.908 310.431 136.008 310.431 136.208C310.471 136.408 310.351 136.507 310.071 136.507H309.531C308.97 136.507 308.41 136.527 307.85 136.567C307.33 136.607 306.79 136.627 306.23 136.627C305.469 136.627 304.689 136.527 303.889 136.328C303.689 136.448 303.469 136.507 303.229 136.507C303.069 136.587 302.949 136.727 302.869 136.927C302.789 137.087 302.709 137.247 302.629 137.407C302.548 137.527 302.428 137.647 302.268 137.767C302.148 137.847 301.968 137.867 301.728 137.827C301.648 138.307 301.448 138.687 301.128 138.967C300.808 139.246 300.648 139.666 300.648 140.226C300.208 140.466 299.848 140.766 299.568 141.126C299.288 141.486 299.007 141.865 298.727 142.265C298.447 142.665 298.147 143.045 297.827 143.405C297.547 143.765 297.187 144.045 296.747 144.245C296.547 144.484 296.487 144.864 296.567 145.384C296.127 145.744 295.586 146.064 294.946 146.344C294.306 146.624 293.706 146.764 293.146 146.764C291.985 146.764 291.185 146.144 290.745 144.904C290.745 144.504 290.785 144.085 290.865 143.645C290.905 143.165 290.985 142.725 291.105 142.325C291.225 141.885 291.405 141.506 291.645 141.186C291.885 140.826 292.225 140.566 292.666 140.406C292.666 140.046 292.546 139.806 292.305 139.686C292.065 139.526 291.965 139.266 292.005 138.907C293.086 138.387 294.026 137.707 294.826 136.867C295.626 136.028 296.347 135.148 296.987 134.228C297.667 133.269 298.347 132.309 299.027 131.349C299.708 130.39 300.468 129.53 301.308 128.77V127.511C302.508 126.231 303.289 124.792 303.649 123.193C304.089 123.113 304.369 122.913 304.489 122.593C304.649 122.273 304.729 121.893 304.729 121.453C304.929 121.453 305.049 121.373 305.089 121.213C305.169 121.013 305.349 120.953 305.629 121.033C305.989 120.074 306.39 119.194 306.83 118.394C307.27 117.595 307.71 116.795 308.15 115.995C308.59 115.156 308.97 114.296 309.29 113.416C309.651 112.537 309.911 111.557 310.071 110.478C310.631 110.438 310.931 110.178 310.971 109.698C311.051 109.178 311.131 108.718 311.211 108.318C311.811 107.759 312.251 107.099 312.531 106.339C312.852 105.579 313.132 104.8 313.372 104C313.612 103.16 313.872 102.341 314.152 101.541C314.472 100.701 314.912 99.9616 315.472 99.3218V99.1419C315.472 98.9419 315.392 98.822 315.232 98.782C315.072 98.702 314.992 98.5621 314.992 98.3622C315.032 98.3222 315.052 98.2822 315.052 98.2422C315.532 98.0423 315.892 97.7224 316.132 97.2826C316.373 96.8028 316.733 96.4629 317.213 96.263C318.053 96.9427 318.793 97.3626 319.433 97.5225C320.074 97.6424 320.914 97.7424 321.954 97.8224C322.474 98.3822 322.754 99.0619 322.794 99.8616C322.874 100.621 323.014 101.381 323.215 102.141C323.535 103.42 323.875 104.68 324.235 105.919C324.635 107.119 324.935 108.358 325.135 109.638C325.255 110.398 325.475 111.117 325.795 111.797C326.115 112.477 326.335 113.176 326.455 113.896C326.535 114.456 326.535 115.096 326.455 115.815C326.375 116.495 326.455 117.095 326.696 117.615L327.116 118.574C327.316 119.014 327.476 119.474 327.596 119.954C327.756 120.434 327.896 120.913 328.016 121.393C328.336 122.593 328.616 123.892 328.856 125.292C329.136 126.651 329.556 127.891 330.117 129.01C330.317 129.41 330.617 129.69 331.017 129.85C331.457 130.01 331.937 130.13 332.457 130.21C332.977 130.25 333.478 130.27 333.958 130.27C334.478 130.23 334.918 130.21 335.278 130.21H335.878C336.118 130.21 336.358 130.25 336.598 130.33C336.758 130.65 336.839 130.93 336.839 131.17C336.839 131.649 336.678 132.029 336.358 132.309C336.038 132.589 335.878 132.909 335.878 133.269C335.878 133.469 335.958 133.689 336.118 133.928C335.958 133.889 335.718 133.869 335.398 133.869C334.478 133.869 333.578 134.028 332.697 134.348C333.017 135.028 333.438 135.608 333.958 136.088C334.518 136.527 335.098 136.947 335.698 137.347C336.098 137.027 336.518 136.867 336.959 136.867C337.439 136.867 337.879 136.987 338.279 137.227C338.719 137.427 339.179 137.527 339.659 137.527C340.019 137.527 340.28 137.467 340.44 137.347C340.76 137.707 341.02 138.087 341.22 138.487C341.42 138.847 341.68 139.186 342 139.506ZM323.215 129.91C323.134 129.23 322.994 128.75 322.794 128.471C322.634 128.151 322.494 127.771 322.374 127.331C322.214 126.771 322.094 126.171 322.014 125.532C321.974 124.892 321.894 124.272 321.774 123.672C321.494 122.313 321.174 120.953 320.814 119.594C320.494 118.235 320.074 116.915 319.553 115.636C319.713 115.396 319.794 115.176 319.794 114.976V114.796C319.433 114.396 319.173 113.916 319.013 113.356C318.853 112.757 318.693 112.177 318.533 111.617C318.413 111.017 318.233 110.478 317.993 109.998C317.793 109.478 317.453 109.058 316.973 108.738C316.853 108.978 316.793 109.258 316.793 109.578C316.793 109.858 316.813 110.118 316.853 110.358C316.933 110.597 316.973 110.857 316.973 111.137C316.573 111.337 316.272 111.657 316.072 112.097C315.912 112.497 315.632 112.817 315.232 113.057C314.912 114.336 314.452 115.556 313.852 116.715C313.252 117.835 312.611 118.954 311.931 120.074C311.291 121.193 310.671 122.333 310.071 123.493C309.47 124.612 308.99 125.792 308.63 127.031C308.11 127.391 307.75 127.851 307.55 128.411C307.39 128.97 307.31 129.53 307.31 130.09C307.67 130.29 308.07 130.41 308.51 130.45C308.99 130.45 309.451 130.45 309.891 130.45C310.331 130.45 310.751 130.49 311.151 130.57C311.551 130.65 311.911 130.85 312.231 131.17C312.751 131.01 313.312 130.91 313.912 130.87C314.552 130.79 315.072 130.61 315.472 130.33C316.272 130.61 317.133 130.75 318.053 130.75C318.533 130.75 318.993 130.71 319.433 130.63C319.914 130.55 320.374 130.45 320.814 130.33C321.174 130.41 321.454 130.55 321.654 130.75C321.854 130.91 322.154 130.97 322.554 130.93C322.754 130.77 322.874 130.61 322.914 130.45C322.954 130.25 323.054 130.07 323.215 129.91Z" fill="#FFF5F5"/>
</svg>
